<svg xmlns="http://www.w3.org/2000/svg" viewBox="0 0 100 100">
  <defs>
    <linearGradient id="grad1" x1="0%" y1="0%" x2="0%" y2="100%">
      <stop offset="0%" style="stop-color:#22c55e;stop-opacity:1" />
      <stop offset="100%" style="stop-color:#15803d;stop-opacity:1" />
    </linearGradient>
  </defs>
  <!-- Background transparent -->
  <!-- Base Leaf/Ground Shape -->
  <path d="M10,50 C10,90 90,90 90,50 C70,60 30,60 10,50 Z" fill="url(#grad1)" />
  <!-- Soil layer -->
  <path d="M20,60 C20,80 80,80 80,60 C60,68 40,68 20,60 Z" fill="#78350f" />
  <!-- Water -->
  <path d="M35,72 Q50,78 65,72" stroke="#3b82f6" stroke-width="3" fill="none" stroke-linecap="round" />
  <!-- Tractor silhouette -->
  <g fill="#451a03">
    <rect x="32" y="32" width="32" height="18" rx="3" />
    <circle cx="38" cy="50" r="7" />
    <circle cx="58" cy="50" r="7" />
    <rect x="58" y="24" width="3" height="10" />
  </g>
  <!-- Main Leaf Sprout -->
  <g transform="translate(68, 12) rotate(15)">
    <path d="M0,18 Q15,0 30,18 Q15,36 0,18 Z" fill="#22c55e" />
    <path d="M12,18 Q22,5 34,14 Q26,28 12,18 Z" fill="#4ade80" />
  </g>
</svg>
